<svg xmlns="http://www.w3.org/2000/svg" viewBox="0 0 4584 2438">
<path fill="#4D66FF" d="
M4204.000000,2194.301270
	C4091.001709,2194.301025 3979.003418,2194.435303 3867.005615,2194.196045
	C3842.403320,2194.143311 3817.800293,2192.848633 3793.205566,2191.915283
	C3788.651611,2191.742676 3784.141113,2190.521729 3779.600830,2189.852295
	C3770.207031,2188.467773 3760.790283,2187.233398 3751.414551,2185.738281
	C3743.984863,2184.553467 3736.606201,2183.052490 3729.198975,2181.724365
	C3663.448242,2169.934570 3599.869873,2151.006836 3538.934326,2123.518066
	C3479.415039,2096.667969 3424.397217,2062.674805 3374.935547,2019.861328
	C3344.375244,1993.408936 3317.068115,1963.982788 3292.655762,1931.787109
	C3230.312988,1849.568604 3167.889893,1767.410889 3105.434570,1685.278076
	C3059.095703,1624.339478 3012.658203,1563.475708 2966.250000,1502.589600
	C2964.052979,1499.707031 2961.716797,1496.930542 2958.923828,1493.455811
	C2949.632812,1506.132202 2940.770264,1518.145630 2931.989258,1530.218018
	C2890.086426,1587.827759 2848.202148,1645.451294 2806.317383,1703.073975
	C2761.497803,1764.733521 2716.803467,1826.485107 2671.815430,1888.021606
	C2650.810791,1916.752563 2630.658691,1946.148071 2606.416260,1972.407227
	C2576.034180,2005.317383 2542.627686,2034.662720 2505.840332,2060.248535
	C2438.487549,2107.093018 2364.843750,2140.557861 2286.056396,2162.530518
	C2255.385010,2171.084473 2223.984619,2177.158936 2192.727051,2183.417725
	C2178.986816,2186.168701 2164.766846,2186.497314 2150.776855,2188.037354
	C2137.996582,2189.444092 2125.251221,2191.194092 2112.455566,2192.428955
	C2102.880127,2193.353271 2093.249268,2194.219482 2083.642578,2194.224365
	C1880.645874,2194.325684 1677.649048,2194.302979 1474.652344,2194.280029
	C1471.475708,2194.279785 1468.299072,2193.971191 1463.832397,2193.739258
	C1475.143555,2178.167725 1485.588623,2163.779053 1496.042969,2149.397217
	C1543.409058,2084.236084 1590.753418,2019.059082 1638.152954,1953.922241
	C1680.067993,1896.322144 1722.064697,1838.781372 1763.990845,1781.189331
	C1811.206787,1716.330688 1858.381958,1651.442017 1905.579346,1586.569824
	C1955.126221,1518.468506 2004.703125,1450.389038 2054.220215,1382.266235
	C2104.323975,1313.336670 2154.324951,1244.332764 2204.455078,1175.422485
	C2256.153809,1104.355957 2307.959717,1033.367188 2359.707764,962.336487
	C2402.242188,903.952759 2444.489014,845.356995 2487.373779,787.231689
	C2520.569824,742.238098 2562.072266,706.064392 2609.169434,676.200073
	C2674.979980,634.469299 2746.949463,608.613586 2823.290039,594.804810
	C2842.986572,591.242004 2863.120361,589.523560 2883.106689,587.376099
	C2908.954102,584.598999 2934.692871,583.698547 2960.547363,583.808167
	C2974.152832,583.865845 2988.051758,583.533508 3001.275879,586.134277
	C3015.868652,589.004150 3031.169922,585.629028 3045.179688,591.924988
	C3115.064941,598.165833 3180.277344,620.222229 3242.634766,651.262939
	C3285.466064,672.583618 3324.347168,699.778870 3359.370605,732.576904
	C3381.840820,753.619507 3401.170166,777.225281 3419.711182,801.620728
	C3476.304932,876.083435 3532.963623,950.496826 3589.582031,1024.940918
	C3621.014893,1066.269775 3652.398682,1107.636108 3683.839111,1148.959473
	C3735.029541,1216.241821 3786.270264,1283.485718 3837.448242,1350.777588
	C3893.058838,1423.898193 3948.606201,1497.067139 4004.210449,1570.192749
	C4061.829102,1645.967529 4119.475098,1721.721313 4177.122559,1797.474121
	C4224.086914,1859.189575 4271.073730,1920.887695 4318.045898,1982.597290
	C4369.654785,2050.398438 4421.260742,2118.202637 4472.854004,2186.015625
	C4474.436523,2188.096191 4475.869629,2190.291016 4477.223633,2192.219971
	C4476.971680,2192.952148 4476.927246,2193.316162 4476.735840,2193.567627
	C4476.569336,2193.786377 4476.236328,2194.008301 4475.977051,2194.008545
	C4385.651367,2194.118652 4295.325684,2194.209717 4204.000000,2194.301270
z"/>
<path fill="#4D66FF" d="
M1599.513916,1687.529785
	C1553.625977,1751.342041 1508.159058,1814.576294 1462.644653,1877.776489
	C1413.238770,1946.380127 1363.774170,2014.941528 1314.364502,2083.542236
	C1290.049438,2117.301270 1265.678589,2151.021240 1241.626221,2184.966553
	C1236.786621,2191.796875 1231.562866,2194.541748 1222.810059,2194.534912
	C873.194336,2194.260254 523.578247,2194.300781 173.962173,2194.300781
	C170.375214,2194.300781 166.788254,2194.301025 161.942291,2194.301025
	C163.398865,2191.582764 164.075439,2189.803711 165.174637,2188.343018
	C211.603424,2126.640137 258.055908,2064.954590 304.535095,2003.289307
	C368.043488,1919.030396 431.576080,1834.789795 495.097595,1750.540771
	C558.418396,1666.557983 621.727051,1582.565918 685.062256,1498.593994
	C749.801636,1412.760498 814.556091,1326.938477 879.324219,1241.126709
	C924.839783,1180.822876 970.054138,1120.287476 1016.036926,1060.341919
	C1048.752930,1017.691589 1090.580688,985.635864 1137.541626,959.992004
	C1182.582886,935.396301 1230.528442,918.869507 1280.758667,908.984741
	C1305.464600,904.122925 1330.356567,900.096313 1355.649170,899.706238
	C1388.591675,899.198181 1421.534912,898.370911 1454.478271,898.354309
	C1687.444580,898.236816 1920.410889,898.291809 2153.377197,898.291809
	C2157.309570,898.291809 2161.241943,898.291809 2166.824707,898.291809
	C2164.743408,901.944275 2163.579102,904.497375 2161.971924,906.732117
	C2132.823486,947.265015 2103.618652,987.757568 2074.431885,1028.262939
	C2041.353027,1074.169678 2008.285278,1120.084351 1975.202759,1165.988647
	C1932.585938,1225.122437 1889.940186,1284.235352 1847.342285,1343.382812
	C1807.076660,1399.291748 1766.876343,1455.247681 1726.611206,1511.156982
	C1684.401245,1569.766479 1642.148315,1628.344849 1599.513916,1687.529785
z"/>
<path fill="#4D66FF" d="
M2580.693359,287.269958
	C2596.511963,302.353119 2607.542480,319.474365 2611.947510,340.385895
	C2617.426514,366.397003 2610.963623,389.880890 2595.915283,411.188019
	C2581.132080,432.119598 2566.026367,452.826355 2550.875000,473.494446
	C2531.396973,500.064026 2512.490967,527.101379 2491.968994,552.845337
	C2461.902588,590.562317 2425.704346,621.895386 2385.814209,648.902405
	C2316.611572,695.755188 2240.663086,726.718933 2159.129639,744.284851
	C2143.231934,747.709839 2127.255371,750.862732 2111.202637,753.440308
	C2101.498779,754.998474 2091.578369,755.212402 2081.753906,756.014221
	C2080.759766,756.095337 2079.667725,755.812500 2078.770508,756.125732
	C2058.948486,763.043579 2038.142822,761.285278 2017.929810,761.358154
	C1847.628174,761.972534 1677.322998,761.905762 1507.019897,761.546448
	C1471.790771,761.472107 1440.008301,749.661072 1412.473999,727.428894
	C1392.336060,711.168640 1378.945312,690.298584 1374.555786,664.758789
	C1371.329346,645.985901 1374.422119,627.378967 1384.411133,610.913635
	C1392.325562,597.867981 1401.444458,585.502747 1410.631836,573.289368
	C1436.840088,538.448975 1463.342041,503.829346 1489.755249,469.143280
	C1519.023438,430.708099 1553.933472,398.105927 1593.006226,369.894409
	C1641.929688,334.570557 1695.301270,307.881683 1752.217529,287.998505
	C1789.345947,275.028046 1827.362183,265.639404 1865.989380,258.615509
	C1874.356323,257.094116 1882.961670,256.927612 1891.429810,255.908768
	C1901.809082,254.660019 1912.154907,253.136459 1922.524170,251.800858
	C1927.727783,251.130646 1932.937988,250.312653 1938.167969,250.082947
	C1954.767334,249.353912 1971.376953,248.380264 1987.983276,248.367477
	C2151.288330,248.241760 2314.593750,248.096054 2477.898193,248.435608
	C2516.424316,248.515717 2551.056641,260.740143 2580.693359,287.269958
z"/>
</svg>
